<?xml version="1.0" encoding="utf-8"?>
<!-- Generator: Adobe Illustrator 26.1.0, SVG Export Plug-In . SVG Version: 6.00 Build 0)  -->
<svg version="1.1" id="Layer_1" xmlns="http://www.w3.org/2000/svg" xmlns:xlink="http://www.w3.org/1999/xlink" x="0px" y="0px"
	 viewBox="0 0 180 180" style="enable-background:new 0 0 180 180;" xml:space="preserve">
<style type="text/css">
	.st0{display:none;}
	.st1{display:inline;opacity:0.34;enable-background:new    ;}
</style>
<g id="Layer_2_00000158740884150390336360000015747178268087088312_" class="st0">
	<path class="st1" d="M159.9,123.6c-14.3,3.5-28.7,6.4-43.2,8.7c5.5-4.5,10-10.3,12.8-17.9c9.9-26-11.4-50.8-10.1-76.8
		c0.2-4.3-5.7-6.7-8.5-3.5C90.1,56.8,63.1,79.2,37.6,96.2C36.7,79,35.8,45,35.9,25.8c30.1-3.2,68.5-6.5,98.7-4.7
		c1.1,0.1,4.9-0.2,5.8,0.4c1.8,1,1.3,2.5,1.4,4.4c0.1,4,0.7,60.5,1.3,77.1c0.2,6.4,10.2,6.4,10,0c-0.6-18.6-0.9-64.4-1.2-73
		c-0.2-6.5,0.4-15.3-7.3-17.8c-3.7-1.2-8.1-0.9-12-1.1c-4.2-0.2-82.4,3.8-100.5,5.9c-2.8,0.3-4.9,2-5,5c-1.1,27.2-0.3,54,0,81
		c-5.4,3.7-8.7,5.7-12.4,8c-5.7,3-0.6,11.6,5,8.6c1.4-1,5.5-3.9,6.8-4.6c-0.7,17.2,0.5,40.6,0.4,49c0,3.3,2.1,5,5,5h116
		c6.4-0.2,6.4-10.2,0-10c-34.1,1.2-76.7-1.3-110.8-0.2c0.7-17.5-1-32.6-0.3-50.1C62.2,92.4,89.1,70.9,110,49.5
		c1.1,7.8,3.5,15.4,5.9,22.9c3.4,10.6,7.7,22.3,5.5,33.7c-5.2,27.2-38.2,30.8-60.4,32.5c-6.4,0.5-6.5,10.4,0,10
		c34.2-2.1,68.1-7.2,101.4-15.3C168.8,131.7,166.2,122.1,159.9,123.6z"/>
</g>
<g id="Layer_3">
	<path d="M157.1,121.9c-11.2,1.6-22.5,3.1-33.7,4.7c3.9-4.1,7.2-9,9.4-14.9c10.3-27.1-5.4-54.4-19.5-76.7c-1.7-2.6-5.6-3.5-7.9-1
		c-17.7,19.3-35,36.1-54.3,51.4V24.2h93.4l-1.1,79c0,6.4,10,6.4,10,0l1.1-84.1c0-3.3-2.6-4.9-5.1-4.8h-0.1H46
		c-2.2,0-3.7,1.2-4.4,2.8c-0.3,0.6-0.5,1.4-0.5,2.2v73.9c-7,5.2-14.4,10.2-22.2,15c-5.5,3.4-0.4,12,5,8.6
		c5.9-3.7,11.6-7.5,17.1-11.4v55.4c0,1.5,0.6,2.7,1.4,3.5c0.8,0.9,2,1.5,3.6,1.5h102.7c6.4,0,6.4-10,0-10l-97.5,0V98.1
		c20.4-15.5,38.4-32.6,57.1-52.3c11.2,18.1,22.4,38.8,15.9,60.4c-3.7,12.6-13.3,19.9-24.6,23.8c-8.9,1.2-17.8,2.5-26.7,3.7
		c-5.7,0.8-4.1,9.7,1.3,9.8c9.3,0.2,66.3-9.3,85.6-11.9C166.1,130.7,163.4,121.1,157.1,121.9z"/>
</g>
</svg>
