<svg width="206" height="44" viewBox="0 0 206 44" fill="none" xmlns="http://www.w3.org/2000/svg">
<path d="M27.9289 27.6711C25.9378 27.9556 23.9289 28.2222 21.9378 28.5067C22.6311 27.7778 23.2178 26.9067 23.6089 25.8578C25.44 21.04 22.6489 16.1867 20.1422 12.2222C19.84 11.76 19.1467 11.6 18.7378 12.0444C15.5911 15.4756 12.5155 18.4622 9.08443 21.1822V10.3022H25.6889L25.4933 24.3467C25.4933 25.4844 27.2711 25.4844 27.2711 24.3467L27.4667 9.39556C27.4667 8.80889 27.0044 8.52445 26.56 8.54223H26.5422H8.17777C7.78666 8.54223 7.51999 8.75556 7.39555 9.04C7.34221 9.14667 7.30666 9.28889 7.30666 9.43112V22.5689C6.06221 23.4933 4.74666 24.3822 3.35999 25.2356C2.38221 25.84 3.28888 27.3689 4.24888 26.7645C5.29777 26.1067 6.3111 25.4311 7.28888 24.7378V34.5867C7.28888 34.8533 7.39555 35.0667 7.53777 35.2089C7.67999 35.3689 7.89332 35.4756 8.17777 35.4756H26.4355C27.5733 35.4756 27.5733 33.6978 26.4355 33.6978H9.10221V23.44C12.7289 20.6845 15.9289 17.6445 19.2533 14.1422C21.2444 17.36 23.2355 21.04 22.08 24.88C21.4222 27.12 19.7155 28.4178 17.7067 29.1111C16.1244 29.3244 14.5422 29.5556 12.96 29.7689C11.9467 29.9111 12.2311 31.4933 13.1911 31.5111C14.8444 31.5467 24.9778 29.8578 28.4089 29.3956C29.5289 29.2356 29.0489 27.5289 27.9289 27.6711Z" fill="black"/>
<path d="M53.7159 18.0909C53.6307 17.3712 53.285 16.8125 52.679 16.4148C52.0729 16.017 51.3295 15.8182 50.4489 15.8182C49.8049 15.8182 49.2415 15.9223 48.7585 16.1307C48.2803 16.339 47.9063 16.6255 47.6364 16.9901C47.3712 17.3546 47.2386 17.7689 47.2386 18.233C47.2386 18.6212 47.331 18.955 47.5156 19.2344C47.705 19.509 47.9465 19.7386 48.2401 19.9233C48.5336 20.1032 48.8414 20.2524 49.1634 20.3707C49.4853 20.4844 49.7812 20.5767 50.0511 20.6477L51.5284 21.0455C51.9072 21.1449 52.3286 21.2822 52.7926 21.4574C53.2614 21.6326 53.7088 21.8717 54.1349 22.1747C54.5658 22.473 54.9209 22.8565 55.2003 23.3253C55.4796 23.794 55.6193 24.3693 55.6193 25.0511C55.6193 25.8371 55.4134 26.5473 55.0014 27.1818C54.5942 27.8163 53.9976 28.3205 53.2116 28.6946C52.4304 29.0687 51.4811 29.2557 50.3636 29.2557C49.322 29.2557 48.42 29.0876 47.6577 28.7514C46.9001 28.4152 46.3035 27.9465 45.8679 27.3452C45.437 26.7438 45.1932 26.0455 45.1364 25.25H46.9545C47.0019 25.7992 47.1866 26.2538 47.5085 26.6136C47.8352 26.9687 48.2472 27.2339 48.7443 27.4091C49.2462 27.5795 49.786 27.6648 50.3636 27.6648C51.036 27.6648 51.6397 27.5559 52.1747 27.3381C52.7098 27.1155 53.1335 26.8078 53.446 26.4148C53.7585 26.017 53.9148 25.553 53.9148 25.0227C53.9148 24.5398 53.7798 24.1468 53.5099 23.8438C53.2401 23.5407 52.8849 23.2945 52.4446 23.1051C52.0043 22.9157 51.5284 22.75 51.017 22.608L49.2273 22.0966C48.0909 21.7699 47.1913 21.3035 46.5284 20.6974C45.8655 20.0914 45.5341 19.2983 45.5341 18.3182C45.5341 17.5038 45.7543 16.7936 46.1946 16.1875C46.6397 15.5767 47.2363 15.1032 47.9844 14.767C48.7372 14.4261 49.5777 14.2557 50.5057 14.2557C51.4432 14.2557 52.2765 14.4238 53.0057 14.7599C53.7348 15.0914 54.3125 15.5459 54.7386 16.1236C55.1695 16.7012 55.3968 17.357 55.4205 18.0909H53.7159ZM61.4982 29.2557C60.8069 29.2557 60.1796 29.1255 59.6161 28.8651C59.0527 28.5999 58.6052 28.2188 58.2738 27.7216C57.9424 27.2197 57.7766 26.6136 57.7766 25.9034C57.7766 25.2784 57.8997 24.7718 58.146 24.3835C58.3922 23.9905 58.7212 23.6828 59.1332 23.4602C59.5451 23.2377 59.9996 23.072 60.4968 22.9631C60.9987 22.8494 61.503 22.7595 62.0096 22.6932C62.6725 22.608 63.2099 22.544 63.6218 22.5014C64.0385 22.4541 64.3415 22.3759 64.5309 22.267C64.725 22.1581 64.8221 21.9687 64.8221 21.6989V21.642C64.8221 20.9413 64.6303 20.3968 64.2468 20.0085C63.868 19.6203 63.2927 19.4261 62.521 19.4261C61.7208 19.4261 61.0934 19.6013 60.6388 19.9517C60.1843 20.3021 59.8647 20.6761 59.68 21.0739L58.0891 20.5057C58.3732 19.8428 58.752 19.3267 59.2255 18.9574C59.7037 18.5833 60.2246 18.3229 60.788 18.1761C61.3562 18.0246 61.9149 17.9489 62.4641 17.9489C62.8145 17.9489 63.217 17.9915 63.6715 18.0767C64.1308 18.1572 64.5735 18.3253 64.9996 18.581C65.4305 18.8366 65.788 19.2225 66.0721 19.7386C66.3562 20.2547 66.4982 20.946 66.4982 21.8125V29H64.8221V27.5227H64.7369C64.6232 27.7595 64.4338 28.0128 64.1687 28.2827C63.9035 28.5526 63.5508 28.7822 63.1104 28.9716C62.6701 29.161 62.1327 29.2557 61.4982 29.2557ZM61.7539 27.75C62.4168 27.75 62.9755 27.6198 63.43 27.3594C63.8893 27.099 64.235 26.7628 64.467 26.3509C64.7037 25.9389 64.8221 25.5057 64.8221 25.0511V23.517C64.7511 23.6023 64.5948 23.6804 64.3533 23.7514C64.1166 23.8177 63.842 23.8769 63.5295 23.929C63.2217 23.9763 62.921 24.0189 62.6275 24.0568C62.3387 24.09 62.1043 24.1184 61.9244 24.142C61.4888 24.1989 61.0816 24.2912 60.7028 24.419C60.3287 24.5421 60.0257 24.7292 59.7937 24.9801C59.5664 25.2263 59.4528 25.5625 59.4528 25.9886C59.4528 26.571 59.6682 27.0114 60.0991 27.3097C60.5347 27.6032 61.0863 27.75 61.7539 27.75ZM69.5575 29V18.0909H71.1768V19.7386H71.2905C71.4893 19.1989 71.8492 18.7609 72.37 18.4247C72.8909 18.0885 73.478 17.9205 74.1314 17.9205C74.2545 17.9205 74.4084 17.9228 74.593 17.9276C74.7777 17.9323 74.9174 17.9394 75.0121 17.9489V19.6534C74.9553 19.6392 74.825 19.6179 74.6214 19.5895C74.4226 19.5563 74.2119 19.5398 73.9893 19.5398C73.459 19.5398 72.9856 19.651 72.5689 19.8736C72.157 20.0914 71.8303 20.3944 71.5888 20.7827C71.352 21.1662 71.2337 21.6042 71.2337 22.0966V29H69.5575ZM80.2092 29.2557C79.5179 29.2557 78.8905 29.1255 78.3271 28.8651C77.7636 28.5999 77.3162 28.2188 76.9847 27.7216C76.6533 27.2197 76.4876 26.6136 76.4876 25.9034C76.4876 25.2784 76.6107 24.7718 76.8569 24.3835C77.1031 23.9905 77.4322 23.6828 77.8441 23.4602C78.256 23.2377 78.7106 23.072 79.2077 22.9631C79.7096 22.8494 80.2139 22.7595 80.7205 22.6932C81.3834 22.608 81.9208 22.544 82.3327 22.5014C82.7494 22.4541 83.0524 22.3759 83.2418 22.267C83.436 22.1581 83.533 21.9687 83.533 21.6989V21.642C83.533 20.9413 83.3413 20.3968 82.9577 20.0085C82.579 19.6203 82.0037 19.4261 81.2319 19.4261C80.4317 19.4261 79.8043 19.6013 79.3498 19.9517C78.8952 20.3021 78.5756 20.6761 78.391 21.0739L76.8001 20.5057C77.0842 19.8428 77.4629 19.3267 77.9364 18.9574C78.4147 18.5833 78.9355 18.3229 79.4989 18.1761C80.0671 18.0246 80.6258 17.9489 81.1751 17.9489C81.5254 17.9489 81.9279 17.9915 82.3825 18.0767C82.8417 18.1572 83.2844 18.3253 83.7106 18.581C84.1415 18.8366 84.4989 19.2225 84.783 19.7386C85.0671 20.2547 85.2092 20.946 85.2092 21.8125V29H83.533V27.5227H83.4478C83.3342 27.7595 83.1448 28.0128 82.8796 28.2827C82.6145 28.5526 82.2617 28.7822 81.8214 28.9716C81.381 29.161 80.8436 29.2557 80.2092 29.2557ZM80.4648 27.75C81.1277 27.75 81.6864 27.6198 82.141 27.3594C82.6003 27.099 82.9459 26.7628 83.1779 26.3509C83.4147 25.9389 83.533 25.5057 83.533 25.0511V23.517C83.462 23.6023 83.3058 23.6804 83.0643 23.7514C82.8275 23.8177 82.5529 23.8769 82.2404 23.929C81.9326 23.9763 81.632 24.0189 81.3384 24.0568C81.0496 24.09 80.8152 24.1184 80.6353 24.142C80.1997 24.1989 79.7925 24.2912 79.4137 24.419C79.0397 24.5421 78.7366 24.7292 78.5046 24.9801C78.2773 25.2263 78.1637 25.5625 78.1637 25.9886C78.1637 26.571 78.3791 27.0114 78.81 27.3097C79.2456 27.6032 79.7972 27.75 80.4648 27.75ZM89.9446 22.4375V29H88.2685V14.4545H89.9446V19.7955H90.0866C90.3423 19.232 90.7259 18.7846 91.2372 18.4531C91.7533 18.117 92.4399 17.9489 93.2969 17.9489C94.0402 17.9489 94.6913 18.098 95.25 18.3963C95.8087 18.6899 96.242 19.142 96.5497 19.7528C96.8622 20.3589 97.0185 21.1307 97.0185 22.0682V29H95.3423V22.1818C95.3423 21.3153 95.1174 20.6454 94.6676 20.1719C94.2225 19.6937 93.6046 19.4545 92.8139 19.4545C92.2647 19.4545 91.7723 19.5705 91.3366 19.8026C90.9058 20.0346 90.5649 20.3731 90.3139 20.8182C90.0677 21.2633 89.9446 21.803 89.9446 22.4375ZM117.642 19H115.88C115.776 18.4934 115.594 18.0483 115.333 17.6648C115.078 17.2812 114.765 16.9593 114.396 16.6989C114.031 16.4337 113.627 16.2348 113.181 16.1023C112.736 15.9697 112.272 15.9034 111.789 15.9034C110.909 15.9034 110.111 16.1259 109.396 16.571C108.686 17.0161 108.12 17.6719 107.699 18.5384C107.282 19.4048 107.074 20.4678 107.074 21.7273C107.074 22.9867 107.282 24.0497 107.699 24.9162C108.12 25.7827 108.686 26.4384 109.396 26.8835C110.111 27.3286 110.909 27.5511 111.789 27.5511C112.272 27.5511 112.736 27.4848 113.181 27.3523C113.627 27.2197 114.031 27.0232 114.396 26.7628C114.765 26.4976 115.078 26.1733 115.333 25.7898C115.594 25.4015 115.776 24.9564 115.88 24.4545H117.642C117.509 25.1979 117.268 25.8632 116.917 26.4503C116.567 27.0374 116.131 27.5369 115.61 27.9489C115.09 28.3561 114.505 28.6662 113.856 28.8793C113.212 29.0923 112.523 29.1989 111.789 29.1989C110.549 29.1989 109.446 28.8958 108.48 28.2898C107.514 27.6837 106.754 26.822 106.2 25.7045C105.646 24.5871 105.369 23.2614 105.369 21.7273C105.369 20.1932 105.646 18.8674 106.2 17.75C106.754 16.6326 107.514 15.7708 108.48 15.1648C109.446 14.5587 110.549 14.2557 111.789 14.2557C112.523 14.2557 113.212 14.3622 113.856 14.5753C114.505 14.7884 115.09 15.1009 115.61 15.5128C116.131 15.92 116.567 16.4171 116.917 17.0043C117.268 17.5866 117.509 18.2519 117.642 19ZM124.835 29.2273C123.783 29.2273 122.877 28.9953 122.114 28.5312C121.357 28.0625 120.772 27.4091 120.36 26.571C119.953 25.7282 119.749 24.7481 119.749 23.6307C119.749 22.5133 119.953 21.5284 120.36 20.6761C120.772 19.8191 121.345 19.1515 122.079 18.6733C122.817 18.1903 123.679 17.9489 124.664 17.9489C125.232 17.9489 125.793 18.0436 126.347 18.233C126.901 18.4223 127.406 18.7301 127.86 19.1562C128.315 19.5777 128.677 20.1364 128.947 20.8324C129.217 21.5284 129.352 22.3854 129.352 23.4034V24.1136H120.942V22.6648H127.647C127.647 22.0492 127.524 21.5 127.278 21.017C127.036 20.5341 126.691 20.1529 126.241 19.8736C125.796 19.5942 125.27 19.4545 124.664 19.4545C123.996 19.4545 123.419 19.6203 122.931 19.9517C122.448 20.2784 122.076 20.7045 121.816 21.2301C121.556 21.7557 121.425 22.3191 121.425 22.9205V23.8864C121.425 24.7102 121.567 25.4086 121.852 25.9815C122.14 26.5497 122.54 26.983 123.052 27.2812C123.563 27.5748 124.157 27.7216 124.835 27.7216C125.275 27.7216 125.673 27.66 126.028 27.5369C126.388 27.4091 126.698 27.2197 126.958 26.9688C127.219 26.7131 127.42 26.3958 127.562 26.017L129.181 26.4716C129.011 27.0208 128.724 27.5038 128.322 27.9205C127.919 28.3324 127.422 28.6544 126.83 28.8864C126.238 29.1136 125.573 29.2273 124.835 29.2273ZM136.021 29.2273C135.112 29.2273 134.309 28.9976 133.613 28.5384C132.917 28.0743 132.372 27.4209 131.979 26.5781C131.586 25.7306 131.39 24.7292 131.39 23.5739C131.39 22.428 131.586 21.4337 131.979 20.5909C132.372 19.7481 132.919 19.0971 133.62 18.6378C134.321 18.1785 135.13 17.9489 136.049 17.9489C136.759 17.9489 137.32 18.0672 137.732 18.304C138.149 18.536 138.466 18.8011 138.684 19.0994C138.906 19.393 139.079 19.6345 139.202 19.8239H139.344V14.4545H141.021V29H139.401V27.3239H139.202C139.079 27.5227 138.904 27.7737 138.677 28.0767C138.45 28.375 138.125 28.6425 137.704 28.8793C137.282 29.1113 136.721 29.2273 136.021 29.2273ZM136.248 27.7216C136.92 27.7216 137.488 27.5464 137.952 27.196C138.416 26.8409 138.769 26.3509 139.011 25.7259C139.252 25.0961 139.373 24.3693 139.373 23.5455C139.373 22.7311 139.254 22.0185 139.018 21.4077C138.781 20.7921 138.431 20.3139 137.967 19.973C137.503 19.6274 136.93 19.4545 136.248 19.4545C135.538 19.4545 134.946 19.6368 134.472 20.0014C134.004 20.3613 133.651 20.8513 133.414 21.4716C133.182 22.0871 133.066 22.7784 133.066 23.5455C133.066 24.322 133.184 25.0275 133.421 25.6619C133.663 26.2917 134.018 26.7936 134.487 27.1676C134.96 27.5369 135.547 27.7216 136.248 27.7216ZM148.897 29.2273C147.846 29.2273 146.939 28.9953 146.177 28.5312C145.419 28.0625 144.835 27.4091 144.423 26.571C144.015 25.7282 143.812 24.7481 143.812 23.6307C143.812 22.5133 144.015 21.5284 144.423 20.6761C144.835 19.8191 145.407 19.1515 146.141 18.6733C146.88 18.1903 147.742 17.9489 148.727 17.9489C149.295 17.9489 149.856 18.0436 150.41 18.233C150.964 18.4223 151.468 18.7301 151.923 19.1562C152.377 19.5777 152.739 20.1364 153.009 20.8324C153.279 21.5284 153.414 22.3854 153.414 23.4034V24.1136H145.005V22.6648H151.71C151.71 22.0492 151.586 21.5 151.34 21.017C151.099 20.5341 150.753 20.1529 150.303 19.8736C149.858 19.5942 149.333 19.4545 148.727 19.4545C148.059 19.4545 147.481 19.6203 146.994 19.9517C146.511 20.2784 146.139 20.7045 145.879 21.2301C145.618 21.7557 145.488 22.3191 145.488 22.9205V23.8864C145.488 24.7102 145.63 25.4086 145.914 25.9815C146.203 26.5497 146.603 26.983 147.114 27.2812C147.626 27.5748 148.22 27.7216 148.897 27.7216C149.337 27.7216 149.735 27.66 150.09 27.5369C150.45 27.4091 150.76 27.2197 151.021 26.9688C151.281 26.7131 151.482 26.3958 151.624 26.017L153.244 26.4716C153.073 27.0208 152.787 27.5038 152.384 27.9205C151.982 28.3324 151.485 28.6544 150.893 28.8864C150.301 29.1136 149.636 29.2273 148.897 29.2273ZM155.964 29V18.0909H157.583V19.7386H157.697C157.896 19.1989 158.255 18.7609 158.776 18.4247C159.297 18.0885 159.884 17.9205 160.538 17.9205C160.661 17.9205 160.815 17.9228 160.999 17.9276C161.184 17.9323 161.324 17.9394 161.418 17.9489V19.6534C161.362 19.6392 161.231 19.6179 161.028 19.5895C160.829 19.5563 160.618 19.5398 160.396 19.5398C159.865 19.5398 159.392 19.651 158.975 19.8736C158.563 20.0914 158.237 20.3944 157.995 20.7827C157.758 21.1662 157.64 21.6042 157.64 22.0966V29H155.964ZM163.632 29V14.4545H165.309V19.8239H165.451C165.574 19.6345 165.744 19.393 165.962 19.0994C166.185 18.8011 166.502 18.536 166.914 18.304C167.33 18.0672 167.894 17.9489 168.604 17.9489C169.523 17.9489 170.332 18.1785 171.033 18.6378C171.734 19.0971 172.281 19.7481 172.674 20.5909C173.067 21.4337 173.263 22.428 173.263 23.5739C173.263 24.7292 173.067 25.7306 172.674 26.5781C172.281 27.4209 171.736 28.0743 171.04 28.5384C170.344 28.9976 169.542 29.2273 168.632 29.2273C167.932 29.2273 167.371 29.1113 166.949 28.8793C166.528 28.6425 166.203 28.375 165.976 28.0767C165.749 27.7737 165.574 27.5227 165.451 27.3239H165.252V29H163.632ZM165.28 23.5455C165.28 24.3693 165.401 25.0961 165.642 25.7259C165.884 26.3509 166.237 26.8409 166.701 27.196C167.165 27.5464 167.733 27.7216 168.405 27.7216C169.106 27.7216 169.691 27.5369 170.159 27.1676C170.633 26.7936 170.988 26.2917 171.225 25.6619C171.466 25.0275 171.587 24.322 171.587 23.5455C171.587 22.7784 171.469 22.0871 171.232 21.4716C171 20.8513 170.647 20.3613 170.174 20.0014C169.705 19.6368 169.115 19.4545 168.405 19.4545C167.723 19.4545 167.15 19.6274 166.686 19.973C166.222 20.3139 165.872 20.7921 165.635 21.4077C165.399 22.0185 165.28 22.7311 165.28 23.5455ZM180.401 29.2273C179.35 29.2273 178.443 28.9953 177.681 28.5312C176.923 28.0625 176.338 27.4091 175.926 26.571C175.519 25.7282 175.316 24.7481 175.316 23.6307C175.316 22.5133 175.519 21.5284 175.926 20.6761C176.338 19.8191 176.911 19.1515 177.645 18.6733C178.384 18.1903 179.246 17.9489 180.23 17.9489C180.799 17.9489 181.36 18.0436 181.914 18.233C182.468 18.4223 182.972 18.7301 183.426 19.1562C183.881 19.5777 184.243 20.1364 184.513 20.8324C184.783 21.5284 184.918 22.3854 184.918 23.4034V24.1136H176.509V22.6648H183.213C183.213 22.0492 183.09 21.5 182.844 21.017C182.603 20.5341 182.257 20.1529 181.807 19.8736C181.362 19.5942 180.837 19.4545 180.23 19.4545C179.563 19.4545 178.985 19.6203 178.498 19.9517C178.015 20.2784 177.643 20.7045 177.382 21.2301C177.122 21.7557 176.992 22.3191 176.992 22.9205V23.8864C176.992 24.7102 177.134 25.4086 177.418 25.9815C177.707 26.5497 178.107 26.983 178.618 27.2812C179.13 27.5748 179.724 27.7216 180.401 27.7216C180.841 27.7216 181.239 27.66 181.594 27.5369C181.954 27.4091 182.264 27.2197 182.525 26.9688C182.785 26.7131 182.986 26.3958 183.128 26.017L184.748 26.4716C184.577 27.0208 184.291 27.5038 183.888 27.9205C183.486 28.3324 182.989 28.6544 182.397 28.8864C181.805 29.1136 181.14 29.2273 180.401 29.2273ZM187.468 29V18.0909H189.087V19.7386H189.201C189.4 19.1989 189.759 18.7609 190.28 18.4247C190.801 18.0885 191.388 17.9205 192.042 17.9205C192.165 17.9205 192.319 17.9228 192.503 17.9276C192.688 17.9323 192.828 17.9394 192.922 17.9489V19.6534C192.865 19.6392 192.735 19.6179 192.532 19.5895C192.333 19.5563 192.122 19.5398 191.9 19.5398C191.369 19.5398 190.896 19.651 190.479 19.8736C190.067 20.0914 189.74 20.3944 189.499 20.7827C189.262 21.1662 189.144 21.6042 189.144 22.0966V29H187.468ZM198.98 33.3182C198.171 33.3182 197.475 33.214 196.892 33.0057C196.31 32.8021 195.825 32.5322 195.436 32.196C195.053 31.8646 194.748 31.5095 194.52 31.1307L195.855 30.1932C196.007 30.392 196.199 30.6193 196.431 30.875C196.663 31.1354 196.98 31.3603 197.382 31.5497C197.79 31.7438 198.322 31.8409 198.98 31.8409C199.861 31.8409 200.588 31.6278 201.161 31.2017C201.734 30.7756 202.02 30.108 202.02 29.1989V26.983H201.878C201.755 27.1818 201.58 27.428 201.353 27.7216C201.13 28.0104 200.808 28.2685 200.387 28.4957C199.97 28.7183 199.407 28.8295 198.696 28.8295C197.816 28.8295 197.025 28.6212 196.324 28.2045C195.628 27.7879 195.077 27.1818 194.669 26.3864C194.267 25.5909 194.066 24.625 194.066 23.4886C194.066 22.3712 194.262 21.3982 194.655 20.5696C195.048 19.7363 195.595 19.0923 196.296 18.6378C196.997 18.1785 197.806 17.9489 198.725 17.9489C199.435 17.9489 199.998 18.0672 200.415 18.304C200.837 18.536 201.158 18.8011 201.381 19.0994C201.608 19.393 201.783 19.6345 201.907 19.8239H202.077V18.0909H203.696V29.3125C203.696 30.25 203.483 31.0123 203.057 31.5994C202.636 32.1913 202.068 32.6245 201.353 32.8991C200.642 33.1785 199.852 33.3182 198.98 33.3182ZM198.924 27.3239C199.596 27.3239 200.164 27.17 200.628 26.8622C201.092 26.5545 201.445 26.1117 201.686 25.5341C201.928 24.9564 202.049 24.2652 202.049 23.4602C202.049 22.6742 201.93 21.9806 201.694 21.3793C201.457 20.7779 201.106 20.3068 200.642 19.9659C200.178 19.625 199.605 19.4545 198.924 19.4545C198.213 19.4545 197.622 19.6345 197.148 19.9943C196.679 20.3542 196.327 20.8371 196.09 21.4432C195.858 22.0492 195.742 22.7216 195.742 23.4602C195.742 24.2178 195.86 24.8878 196.097 25.4702C196.338 26.0478 196.694 26.5024 197.162 26.8338C197.636 27.1605 198.223 27.3239 198.924 27.3239Z" fill="black"/>
</svg>
